<?xml version="1.0" encoding="UTF-8" standalone="no"?>
<!DOCTYPE svg PUBLIC "-//W3C//DTD SVG 1.1//EN" "http://www.w3.org/Graphics/SVG/1.1/DTD/svg11.dtd">
<svg version="1.1" xmlns="http://www.w3.org/2000/svg" xmlns:xlink="http://www.w3.org/1999/xlink"
     preserveAspectRatio="xMidYMid meet" viewBox="0 0 640 615" width="640" height="615">
    <defs>
        <path d="M438.18 369.09C422.91 378.28 404.16 364.16 408.57 346.86C416.7 314.98 426.22 270.57 426.22 237.35C426.22 179.32 360.99 261.32 360.99 261.32C362.22 270.02 371.99 339.66 373.22 348.37C373.22 348.37 365.34 376.88 343.96 402.07C333.54 414.36 313.72 409.93 309.33 394.44C302.06 368.87 298.07 327.83 321.2 278.97C360.61 195.69 265.99 270.13 265.99 270.13C265.99 270.13 291.88 339.17 276.33 413.83C273.26 428.56 255.33 434.55 243.86 424.8C218.53 403.23 183.23 359.59 186.49 285.26C186.49 285.26 184.31 348.05 170.08 358.45C170.08 358.45 115.83 330.69 112.05 313.02C108.26 295.34 112.05 349.61 112.05 349.61C112.05 349.61 315.18 405.12 209.2 614.57C222.32 614.57 327.29 614.57 340.41 614.57C340.41 614.57 259.17 527.8 360.99 448.8C462.81 369.81 480.47 387.46 504.43 315.54C528.42 243.64 493.09 291.6 493.09 291.6C482.11 307.09 493.09 335.96 438.18 369.09Z"
              id="f4uatQWAtH"></path>
        <path d="M136.41 331.55C144.11 330.39 151.96 330.15 159.72 330.87C157.46 321.45 172.79 314.3 178.54 322.07C185.57 331.57 176.39 350.41 187.55 354.3C194.07 356.56 199.9 350.07 205.55 346.14C213.3 340.77 223.95 339.89 232.48 343.92C232.76 338.19 233.04 332.46 233.32 326.72C238.65 326.94 244 327.16 249.33 327.39C249.45 322.32 249.56 317.27 249.68 312.2C276.13 315.36 294.48 349.41 320.65 344.4C324.12 343.74 327.65 342.35 331.09 343.14C334.28 343.84 336.75 346.24 339.43 348.07C351.88 356.56 368.87 353.06 382.68 346.98C396.46 340.91 409.85 332.46 424.92 331.73C436.44 331.17 450.61 334.24 457.42 324.94C459.36 322.28 460.37 318.85 462.93 316.78C470.39 310.75 479.68 320.89 486.56 327.59C498.66 339.37 516.94 341.73 533.81 342.11C542.57 342.31 551.67 342.07 559.48 338.13C567.3 334.18 573.37 325.5 571.62 316.94C569.76 307.89 560.14 298.45 565.93 291.23C575.95 295.86 588.84 293.34 596.35 285.24C588.44 268.95 601.74 246.63 619.84 245.83C624.63 245.63 629.56 246.65 634.17 245.3C638.78 243.96 642.82 238.75 640.62 234.5C637.79 229.07 627.65 229.85 626.53 223.84C625.71 219.43 630.74 216.47 633.1 212.66C637.47 205.61 631.28 195.81 623.31 193.6C615.33 191.4 606.87 194.45 599.36 197.93C597.72 181.82 585.13 167.41 569.38 163.63C579.24 159.26 583.59 145.63 578.08 136.37C572.57 127.11 558.52 124.41 549.98 130.96C553.39 121.86 551.18 110.92 544.55 103.83C537.92 96.73 527.16 93.83 517.84 96.59C514.87 82.81 511.91 69 508.94 55.21C507.84 50.06 506.62 44.67 503.21 40.65C494.93 30.87 478.4 33.65 468.46 25.54C465.9 23.43 463.53 20.51 460.21 20.33C454.66 20.02 451.49 27.48 446 28.3C442.91 28.76 440.01 27 437.1 25.86C426.76 21.73 413.76 26.02 407.88 35.48C405.66 27.06 395.92 22.81 387.22 22.71C378.53 22.61 369.99 25.38 361.29 25.56C347.39 25.84 334.2 19.52 320.37 17.98C306.55 16.44 289.57 22.55 287.37 36.3C286.33 42.71 288.59 50.18 284.42 55.15C281.84 58.24 277.59 59.22 273.96 60.96C266.53 64.55 261.2 72.15 260.36 80.34C255.53 76.86 250.54 73.17 247.83 67.86C245.13 62.55 245.57 55.13 250.42 51.69C252.9 49.92 256.09 49.44 258.77 48C265.55 44.37 267.59 35.8 268.93 28.22C269.25 26.38 269.57 24.37 268.73 22.69C267.81 20.85 265.79 19.88 263.9 19.04C254.56 14.93 245.25 10.85 235.91 6.74C226.87 2.77 214.19 -0.21 208.9 8.12C207.19 10.83 206.73 14.29 204.55 16.64C200.3 21.15 192.14 19 187.25 22.89C181.8 27.22 183.21 36.7 177.86 41.17C174.97 43.59 170.88 43.87 167.53 45.57C162.38 48.22 159.42 54.55 160.72 60.2C162.02 65.85 167.45 70.28 173.27 70.4C178.42 70.5 183.13 67.6 188.18 66.52C193.23 65.43 199.9 67.4 200.52 72.53C201.1 77.34 195.71 80.9 190.86 81.08C186.03 81.24 181.32 79.36 176.49 79.2C162.14 78.76 147.4 93.29 135.27 85.59C130.84 82.79 127.86 77.34 122.69 76.56C113.69 75.19 109.8 88.1 101.75 92.33C93.71 96.53 80.57 92.77 77.34 101.24C76.58 103.25 76.72 105.45 76.48 107.58C75.19 119.14 63.51 126.33 52.87 131.02C43.75 135.05 34.27 138.68 26.54 144.95C18.8 151.2 12.97 160.86 14.2 170.74C15.22 179.14 21.15 186.83 20.03 195.21C14.06 197.57 7.8 200.1 3.67 205.01C-0.45 209.92 -1.64 217.99 2.91 222.54C10.29 229.93 23.01 222.06 33.15 224.48C33.85 228.03 34.54 231.58 35.24 235.12C44.72 235.83 54.21 236.53 63.69 237.23C64.21 240.48 64.71 243.74 65.24 246.99C72.75 237.69 88.16 244.1 99.36 239.87C105.25 237.65 109.56 232.58 114.95 229.31C120.34 226.05 128.52 225.31 131.99 230.56C121.04 242.1 107.3 250.94 92.27 256.11C83.05 259.27 73.09 261.22 65.38 267.19C57.66 273.16 53.31 285.08 59.3 292.76C53.13 292.42 46.9 293.02 40.91 294.58C40.15 301.47 40.99 308.53 43.31 315.06C54.09 313.26 65.66 320.11 69.28 330.41C70.77 334.62 71.03 339.19 72.67 343.32C77 354.26 90.14 359.53 101.87 358.47C113.59 357.4 124.21 351.47 134.43 345.66"
              id="f5d4cpxw7"></path>
        <path d="M272.3 111.5C270.16 109.78 267.81 108 265.07 107.88C262.8 107.78 260.7 108.86 258.55 109.56C245.57 113.85 232.26 105.01 218.86 102.35C199.56 98.52 180.34 107.68 162.81 116.57C158.3 118.86 153.21 121.96 152.73 126.99C146.07 124.11 138.92 121.16 131.77 122.38C124.61 123.61 118.06 130.94 120.44 137.79C112.97 141.28 104.37 134.19 96.24 135.55C88 136.93 83.67 146.21 82.59 154.49C81.51 162.76 82.15 171.64 78.02 178.9C78.04 179.14 78.22 181.1 78.24 181.34C87.76 182.92 97.88 184.77 104.99 191.28C107.92 193.94 110.16 197.27 112.93 200.12C122.27 209.7 137.7 212.7 149.94 207.33C158.1 203.76 164.45 197.09 172.02 192.42C179.6 187.73 189.9 185.29 197.09 190.54C205.95 197.01 207.29 212.96 218.15 214.44C226.55 215.61 232.32 206.79 237.99 200.5C244.53 193.24 253.52 188.23 263.14 186.53C270.76 185.17 278.73 185.81 286.11 183.46C293.48 181.12 300.41 174.23 299.01 166.61C295.71 170.88 287.27 167.47 287.85 162.1C288.65 154.63 300.57 154.13 303.9 147.39C306.99 141.12 300.92 134.39 295.46 130.02C287.75 123.85 280.01 117.68 272.3 111.5Z"
              id="a5rbYfpLn"></path>
        <path d="M502.19 93.83C501.57 91.58 501.85 89.18 501.95 86.86C502.89 64.21 482.41 42.93 459.75 43.01C460.33 45.63 460.89 48.24 461.47 50.87C451.33 48.18 439.71 52.93 434.36 61.95C416.24 56.2 398.15 50.44 380.03 44.69C377.83 43.99 375.36 43.31 373.3 44.33C370.91 45.51 370.07 48.44 368.75 50.74C364.48 58.2 354.7 59.78 346.44 62.17C338.19 64.55 328.99 71.2 330.97 79.56C330.72 80.28 328.68 86.05 328.43 86.78C324.76 101.72 337.17 118.44 352.54 119.28C359.07 119.64 365.44 117.56 371.83 116.29C381.61 114.37 391.73 114.29 401.53 116.07C403.2 116.37 404.98 116.79 406.1 118.08C410.45 122.97 399.83 130.1 402.35 136.15C403.36 138.54 406.06 139.64 408.53 140.42C424.3 145.35 441.23 146.53 457.52 143.81C463.63 142.78 470.13 140.94 473.99 136.09C477.62 131.54 478.5 124.83 483.23 121.44C491.29 115.69 503.43 123.93 512.17 119.28C517.84 119.04 517.72 109.98 513.73 105.95C509.74 101.92 503.69 99.3 502.19 93.83Z"
              id="a1zKZhgz5G"></path>
        <path d="M343 261.6C329.27 250.62 311.2 241.8 294.54 247.43C289.39 249.17 284.7 252.2 279.43 253.5C261.28 257.93 244.12 240.76 225.47 241.66C208.09 242.5 194.33 258.71 176.95 259.47C168.6 259.83 160.54 256.53 152.23 255.75C143.87 254.96 133.93 257.97 131.38 265.93C129.66 271.32 131.83 277.71 128.96 282.6C126.78 286.35 122.31 288.05 119.1 290.99C110.76 298.63 112.83 312.04 115.55 323.02C115.61 322.76 116.09 320.71 116.15 320.45C119.82 317.91 122.27 324.72 124.89 328.33C127.62 332.09 133.25 332.72 137.58 330.99C141.9 329.27 145.21 325.74 148.36 322.32C155.03 315.04 161.86 307.45 170.88 303.44C179.9 299.41 191.78 299.99 198.19 307.49C203.08 313.2 205.57 322.9 213.08 323.24C221.84 323.64 224.13 311.35 229.84 304.7C236.21 297.27 247.45 297.11 257.25 297.53C263.28 297.79 269.49 298.09 275 300.53C280.15 302.82 284.34 306.8 289.29 309.49C294.24 312.18 300.78 313.34 305.24 309.91C301.52 305.88 299.47 300.35 299.67 294.86C308.49 296.63 317.29 298.37 326.1 300.13C336.22 302.16 348.67 303.38 354.98 295.22C359.03 289.99 358.83 282.36 356 276.37C353.18 270.37 348.17 265.72 343 261.6Z"
              id="c1QqhaOS9e"></path>
        <path d="M556.82 206.13C548.02 200.36 541.39 191.92 534.13 184.29C531.27 181.26 528.12 178.25 524.13 177.01C518.26 175.19 512.03 177.61 505.94 178.33C486.06 180.7 464.66 165.25 447.14 174.97C438.36 179.84 431.15 190.72 421.37 188.47C417.12 187.49 413.88 184.11 409.95 182.22C403.48 179.12 395.78 180.34 388.95 182.52C375.54 186.81 363.28 194.61 353.74 204.95C353.96 205.35 355.74 208.57 355.96 208.97C352.14 209.21 348.55 211.7 346.99 215.21C357.23 216.13 365.32 227.09 363.22 237.15C362.56 240.34 361.03 243.38 361.13 246.63C361.37 254.96 371.07 258.99 378.77 262.16C389.25 266.47 398.91 272.8 407.06 280.67C408.89 282.44 410.71 284.4 411.35 286.89C412.87 292.86 406.94 298.43 407.18 304.58C407.44 311.37 415.38 315.64 422.13 314.86C428.89 314.1 434.68 309.95 440.51 306.44C449.43 301.07 459.1 296.93 469.14 294.16C470.89 293.68 472.75 293.24 474.47 293.78C476.16 294.28 477.46 295.64 479.06 296.34C483.87 298.49 488.98 294.5 493.11 291.25C497.24 287.99 503.79 285.42 507.2 289.45C502.35 304.34 517.32 321.73 532.77 319.11C529.78 313.04 535.91 306.5 541.73 303.04C547.54 299.57 554.61 295.26 554.37 288.49C554.11 281.07 545.51 277.55 539.6 273.06C531.17 266.69 526.9 255.24 529.1 244.9C529.52 242.94 530.22 240.92 531.75 239.59C534.13 237.57 537.64 237.89 540.74 238.25C553.83 239.75 567.1 239.63 580.16 237.91C583.33 237.49 586.61 236.91 589.12 234.94C596.43 229.19 591.8 217.49 586.67 209.66C577.38 214.6 565.61 211.92 556.82 206.13Z"
              id="d2yfMBWkA6"></path>
    </defs>
    <g>
        <g>
            <g>
                <use xlink:href="#f4uatQWAtH" opacity="1" fill="#9a795f" fill-opacity="1"></use>
                <g>
                    <use xlink:href="#f4uatQWAtH" opacity="1" fill-opacity="0" stroke="#000000" stroke-width="1"
                         stroke-opacity="0"></use>
                </g>
            </g>
            <g>
                <use xlink:href="#f5d4cpxw7" opacity="1" fill="#8cc63e" fill-opacity="1"></use>
                <g>
                    <use xlink:href="#f5d4cpxw7" opacity="1" fill-opacity="0" stroke="#000000" stroke-width="1"
                         stroke-opacity="0"></use>
                </g>
            </g>
            <g>
                <use xlink:href="#a5rbYfpLn" opacity="1" fill="#7fb239" fill-opacity="1"></use>
                <g>
                    <use xlink:href="#a5rbYfpLn" opacity="1" fill-opacity="0" stroke="#000000" stroke-width="1"
                         stroke-opacity="0"></use>
                </g>
            </g>
            <g>
                <use xlink:href="#a1zKZhgz5G" opacity="1" fill="#7fb239" fill-opacity="1"></use>
                <g>
                    <use xlink:href="#a1zKZhgz5G" opacity="1" fill-opacity="0" stroke="#000000" stroke-width="1"
                         stroke-opacity="0"></use>
                </g>
            </g>
            <g>
                <use xlink:href="#c1QqhaOS9e" opacity="1" fill="#7fb239" fill-opacity="1"></use>
                <g>
                    <use xlink:href="#c1QqhaOS9e" opacity="1" fill-opacity="0" stroke="#000000" stroke-width="1"
                         stroke-opacity="0"></use>
                </g>
            </g>
            <g>
                <use xlink:href="#d2yfMBWkA6" opacity="1" fill="#7fb239" fill-opacity="1"></use>
                <g>
                    <use xlink:href="#d2yfMBWkA6" opacity="1" fill-opacity="0" stroke="#000000" stroke-width="1"
                         stroke-opacity="0"></use>
                </g>
            </g>
        </g>
    </g>
</svg>